<?xml version="1.0" standalone="no"?><!DOCTYPE svg PUBLIC "-//W3C//DTD SVG 1.1//EN" "http://www.w3.org/Graphics/SVG/1.1/DTD/svg11.dtd"><svg t="1621100928480" class="icon" viewBox="0 0 1024 1024" version="1.1" xmlns="http://www.w3.org/2000/svg" p-id="1182" xmlns:xlink="http://www.w3.org/1999/xlink" width="200" height="200"><defs><style type="text/css"></style></defs><path d="M717.30176 796.82048a95.0272 95.0272 0 0 1-69.51936-30.36672L278.52288 367.5904a94.03904 94.03904 0 0 1-25.13408-67.97824 94.06976 94.06976 0 0 1 30.30016-65.85344l205.4144-190.1824a94.4384 94.4384 0 0 1 64.32768-25.21088 94.976 94.976 0 0 1 69.51424 30.37696l369.2544 398.84288c35.47648 38.30784 33.17248 98.34496-5.15072 133.8368l-205.41952 190.18752a94.464 94.464 0 0 1-64.32768 25.21088zM553.43104 60.66176a52.224 52.224 0 0 0-35.58912 13.95712l-205.4144 190.1824a52.04992 52.04992 0 0 0-16.77312 36.44928 52.0704 52.0704 0 0 0 13.90592 37.61664l369.25952 398.85824a51.92704 51.92704 0 0 0 38.48704 16.80384c13.2352 0 25.87648-4.95616 35.58912-13.95712l205.42464-190.17728c21.21216-19.64032 22.48704-52.87424 2.85696-74.07616l-369.26464-398.848a51.91168 51.91168 0 0 0-38.48192-16.80896zM96.97792 994.52928a91.904 91.904 0 0 1-67.26144-29.3888c-34.32448-37.07904-32.08704-95.18592 4.98688-129.51552l270.81216-243.36384a91.14624 91.14624 0 0 1 62.00832-24.192c25.46176 0 49.98144 10.71616 67.26656 29.39392a91.02336 91.02336 0 0 1 24.32512 65.78176 91.008 91.008 0 0 1-29.32224 63.7184l-270.7968 243.3792a91.17184 91.17184 0 0 1-62.01856 24.18688z m270.55104-384.16384a49.16736 49.16736 0 0 0-33.50528 13.13792l-270.81216 243.36896c-19.73248 18.27328-20.93568 49.56672-2.44736 69.53984a48.8448 48.8448 0 0 0 36.21888 15.8208 49.19296 49.19296 0 0 0 33.50528-13.1328l270.81216-243.38944c9.4464-8.74496 15.0528-20.92544 15.55968-34.08896a48.9984 48.9984 0 0 0-13.10208-35.4304 48.85504 48.85504 0 0 0-36.22912-15.82592z" p-id="1183" fill="#efb336"></path><path d="M634.78784 89.6512l28.73344 31.0272-317.83424 294.31296-28.73344-31.03232zM927.7184 406.03648l28.7232 31.03232-317.87008 294.26688-28.72832-31.0272zM477.568 682.17344a63.232 63.232 0 0 1-46.27456-20.23424l-68.01408-73.45664c-23.61344-25.49248-22.07744-65.4592 3.42016-89.07776a62.86336 62.86336 0 0 1 42.81856-16.77824c17.5104 0 34.37568 7.36768 46.26944 20.20864l68.0192 73.472a62.62784 62.62784 0 0 1 16.73728 45.25056 62.59712 62.59712 0 0 1-20.16256 43.83232 62.86336 62.86336 0 0 1-42.81344 16.78336z m-68.04992-157.25568c-5.23776 0-10.24 1.96096-14.08512 5.51936a20.78208 20.78208 0 0 0-1.12128 29.31712L462.336 633.216a20.51584 20.51584 0 0 0 15.232 6.66112 20.67456 20.67456 0 0 0 14.08-5.51936 20.60288 20.60288 0 0 0 6.6304-14.42304 20.57728 20.57728 0 0 0-5.50912-14.88384l-68.02432-73.47712a20.49024 20.49024 0 0 0-15.22688-6.656zM985.83552 992.96256H400.77824V919.6544c0-48.96768 39.84384-88.81664 88.81664-88.81664h407.424c48.9728 0 88.82176 39.84384 88.82176 88.81664v73.30816z m-542.76608-42.2912h500.47488v-31.02208c0-25.64608-20.87424-46.52032-46.53056-46.52032H489.59488c-25.6512 0-46.52032 20.87424-46.52032 46.52032v31.02208z" p-id="1184" fill="#efb336" data-spm-anchor-id="a313x.7781069.0.i0"></path></svg>