<?xml version="1.0" standalone="no"?><!DOCTYPE svg PUBLIC "-//W3C//DTD SVG 1.1//EN" "http://www.w3.org/Graphics/SVG/1.1/DTD/svg11.dtd"><svg t="1587152252513" class="icon" viewBox="0 0 1024 1024" version="1.1" xmlns="http://www.w3.org/2000/svg" p-id="1587" xmlns:xlink="http://www.w3.org/1999/xlink" width="200" height="200"><defs><style type="text/css"></style></defs><path d="M399.633067 887.466667H232.584533A96.0512 96.0512 0 0 1 136.533333 791.415467v-167.048534a96.0512 96.0512 0 0 1 96.0512-96.0512h167.048534a96.0512 96.0512 0 0 1 96.0512 96.0512v167.048534A96.0512 96.0512 0 0 1 399.633067 887.466667z m0-56.695467c21.7088 0 39.3216-17.6128 39.3216-39.355733v-167.048534c0-21.7088-17.6128-39.3216-39.3216-39.3216H232.584533c-21.7088 0-39.355733 17.6128-39.355733 39.3216v167.048534c0 21.7088 17.646933 39.355733 39.355733 39.355733h167.048534zM808.3456 887.466667h-200.9088a79.394133 79.394133 0 0 1-79.121067-79.735467V738.645333a79.394133 79.394133 0 0 1 79.121067-79.735466h200.9088A79.428267 79.428267 0 0 1 887.466667 738.645333v69.085867A79.428267 79.428267 0 0 1 808.3456 887.466667z m0-57.1392a22.528 22.528 0 0 0 22.4256-22.596267V738.645333a22.528 22.528 0 0 0-22.4256-22.596266h-200.9088a22.493867 22.493867 0 0 0-22.391467 22.596266v69.085867c0 12.4928 10.001067 22.596267 22.391467 22.596267h200.9088z m-408.712533-334.6432H232.584533A96.0512 96.0512 0 0 1 136.533333 399.633067V232.584533A96.0512 96.0512 0 0 1 232.584533 136.533333h167.048534a96.0512 96.0512 0 0 1 96.0512 96.0512v167.048534a96.0512 96.0512 0 0 1-96.0512 96.0512z m0-56.7296c21.7088 0 39.3216-17.6128 39.3216-39.3216V232.584533c0-21.742933-17.6128-39.355733-39.3216-39.355733H232.584533c-21.7088 0-39.355733 17.646933-39.355733 39.355733v167.048534c0 21.7088 17.646933 39.3216 39.355733 39.3216h167.048534z m397.073066 154.658133h-177.629866c-50.141867 0-90.760533-39.287467-90.760534-87.7568V224.324267c0-48.469333 40.618667-87.790933 90.760534-87.790934h177.629866C846.848 136.533333 887.466667 175.8208 887.466667 224.324267v281.531733c0 48.469333-40.618667 87.7568-90.760534 87.7568z m0-54.852267c18.807467 0 34.065067-14.7456 34.065067-32.904533V224.324267c0-18.193067-15.2576-32.938667-34.065067-32.938667h-177.629866c-18.807467 0-34.030933 14.7456-34.030934 32.938667v281.531733c0 18.193067 15.223467 32.904533 34.030934 32.904533h177.629866z" p-id="1588" fill="#333333"></path></svg>