<?xml version="1.0" standalone="no"?><!DOCTYPE svg PUBLIC "-//W3C//DTD SVG 1.1//EN" "http://www.w3.org/Graphics/SVG/1.1/DTD/svg11.dtd"><svg t="1587152233087" class="icon" viewBox="0 0 1024 1024" version="1.1" xmlns="http://www.w3.org/2000/svg" p-id="1356" xmlns:xlink="http://www.w3.org/1999/xlink" width="200" height="200"><defs><style type="text/css"></style></defs><path d="M859.306667 249.173333h-262.826667a28.16 28.16 0 0 1 0-56.32h262.826667a28.16 28.16 0 0 1 0 56.32z m0 150.186667h-262.826667a28.16 28.16 0 0 1 0-56.32h262.826667a28.16 28.16 0 0 1 0 56.32z m0 262.826667h-262.826667a28.16 28.16 0 0 1 0-56.32h262.826667a28.16 28.16 0 0 1 0 56.32z m0 150.186666h-262.826667a28.16 28.16 0 0 1 0-56.32h262.826667a28.16 28.16 0 0 1 0 56.32z m-627.370667-225.28c-21.538133 0-39.082667 17.544533-39.082667 39.082667v165.888c0 21.538133 17.544533 39.082667 39.082667 39.082667h165.888c21.538133 0 39.082667-17.544533 39.082667-39.082667v-165.888c0-21.538133-17.544533-39.082667-39.048534-39.082667H231.936z m165.888 300.373334h-165.888A95.470933 95.470933 0 0 1 136.533333 792.064v-165.888a95.470933 95.470933 0 0 1 95.402667-95.402667h165.888a95.470933 95.470933 0 0 1 95.402667 95.402667v165.888A95.470933 95.470933 0 0 1 397.858133 887.466667zM231.970133 192.853333c-21.538133 0-39.082667 17.544533-39.082666 39.082667v165.888c0 21.538133 17.544533 39.082667 39.082666 39.082667h165.888c21.538133 0 39.082667-17.544533 39.082667-39.082667v-165.888c0-21.538133-17.544533-39.082667-39.048533-39.082667H231.936z m165.888 300.373334h-165.888A95.470933 95.470933 0 0 1 136.533333 397.824v-165.888A95.470933 95.470933 0 0 1 231.936 136.533333h165.888a95.470933 95.470933 0 0 1 95.402667 95.402667v165.888a95.470933 95.470933 0 0 1-95.368534 95.402667z" p-id="1357" fill="#333333"></path></svg>