<?xml version="1.0" standalone="no"?><!DOCTYPE svg PUBLIC "-//W3C//DTD SVG 1.1//EN" "http://www.w3.org/Graphics/SVG/1.1/DTD/svg11.dtd"><svg t="1589390945579" class="icon" viewBox="0 0 1024 1024" version="1.1" xmlns="http://www.w3.org/2000/svg" p-id="24929" xmlns:xlink="http://www.w3.org/1999/xlink" width="200" height="200"><defs><style type="text/css"></style></defs><path d="M512 512m-448 0a448 448 0 1 0 896 0 448 448 0 1 0-896 0Z" fill="#E1504F" p-id="24930"></path><path d="M512 768c-48 0-210-186.02-210-302 0-115.98 94.02-210 210-210s210 94.02 210 210-162 302-210 302z m0-212c49.706 0 90-40.294 90-90s-40.294-90-90-90-90 40.294-90 90 40.294 90 90 90z" fill="#F3F5F6" p-id="24931"></path><path d="M512 256v120c-49.706 0-90 40.294-90 90s40.294 90 90 90v212c-48 0-210-186.02-210-302 0-115.98 94.02-210 210-210z" fill="#FFFFFF" p-id="24932"></path><path d="M512 256c115.98 0 210 94.02 210 210S560 768 512 768V556c49.706 0 90-40.294 90-90s-40.294-90-90-90V256z" fill="#F5DBDB" p-id="24933"></path></svg>