<?xml version="1.0" standalone="no"?><!DOCTYPE svg PUBLIC "-//W3C//DTD SVG 1.1//EN" "http://www.w3.org/Graphics/SVG/1.1/DTD/svg11.dtd"><svg t="1587667090050" class="icon" viewBox="0 0 1024 1024" version="1.1" xmlns="http://www.w3.org/2000/svg" p-id="7028" xmlns:xlink="http://www.w3.org/1999/xlink" width="200" height="200"><defs><style type="text/css"></style></defs><path d="M512 127.0272c-133.4144 0-192.4864 72.1792-192.4864 192.4864V656.384h384.9856V319.5136c-0.0128-120.3072-78.72-192.4864-192.4992-192.4864z" fill="#A67C52" p-id="7029"></path><path d="M560.128 487.9488h-96.256l-24.0512 96.2432v312.8064h144.3584V584.192z" fill="#DBB59A" p-id="7030"></path><path d="M223.2576 704.4992c-45.2352 45.2352-48.128 192.4864-48.128 192.4864H512L415.7568 608.256s-169.8944 73.6256-192.4992 96.2432z m577.4848 0C778.112 681.8688 608.256 608.256 608.256 608.256L512 896.9984h336.8576s-2.88-147.264-48.1152-192.4992z" fill="#48A0DC" p-id="7031"></path><path d="M584.1792 584.192L512 896.9984h24.064l72.1792-168.4352 120.3072-24.064-144.3712-120.3072z m-288.7296 120.3072l120.3072 24.064 72.1792 168.4352H512L439.8208 584.192l-144.3712 120.3072z" fill="#FFFFFF" p-id="7032"></path><path d="M578.2144 270.976c-18.8288 41.6384-83.7888 72.6016-162.4576 72.6016h-47.7824c1.0496 47.1424 5.44 83.7248 23.7312 120.3072 24.064 48.128 73.1648 96.2432 120.3072 96.2432S608.256 512 632.32 463.8848c21.4272-42.8416 23.7696-85.696 24.0256-145.5232-1.4208-27.0464-52.48-47.3856-78.1312-47.3856z" fill="#F6CBAD" p-id="7033"></path><path d="M723.6864 283.8912c-21.0176-75.904-107.8016-132.8-211.6864-132.8s-190.6688 56.896-211.6864 132.8c-16.0512 8.8064-28.928 21.504-28.928 35.6224v48.128c0 26.5728 45.6064 48.128 72.1792 48.128v-96.2432c0-66.4448 75.4048-120.3072 168.4352-120.3072s168.4352 53.8624 168.4352 120.3072v48.128c0 51.5712-32.448 95.552-78.0288 112.6656-6.4384-9.8816-17.5872-16.4224-30.2464-16.4224h-48.128c-19.9296 0-36.096 16.1664-36.096 36.096 0 19.9296 16.1664 36.096 36.096 36.096H572.16c3.52 0 6.912-0.512 10.1248-1.4464 70.9888-9.3312 128.0512-62.8608 142.6432-132.0576 15.4752-8.768 27.6992-21.1712 27.6992-34.9184v-48.128c-0.0128-14.144-12.8896-26.8416-28.9408-35.648z" fill="#4D4D4D" p-id="7034"></path></svg>